<svg xmlns="http://www.w3.org/2000/svg" width="1400" height="900" viewBox="0 0 1400 900" role="img" aria-labelledby="title desc">
  <title id="title">NMSI Support Navigator end-to-end wireframe flow</title>
  <desc id="desc">Black and white overview connecting login, dashboard, support search, facility details, appointments, chatbot, database and DeepSeek.</desc>
  <defs><marker id="arrow" markerWidth="9" markerHeight="9" refX="8" refY="4.5" orient="auto"><path d="M0,0 L9,4.5 L0,9 Z" fill="#000"/></marker><style>.page{fill:#fff;stroke:#000;stroke-width:3}.thin{fill:none;stroke:#000;stroke-width:2}.dash{fill:#fff;stroke:#000;stroke-width:2;stroke-dasharray:8 6}.t{font-family:Arial,sans-serif;fill:#000;font-size:18px}.s{font-family:Arial,sans-serif;fill:#000;font-size:14px}.h{font-family:Arial,sans-serif;fill:#000;font-size:29px;font-weight:700}.flow{fill:none;stroke:#000;stroke-width:3;marker-end:url(#arrow)}</style></defs>
  <rect width="1400" height="900" fill="#fff"/>
  <text x="35" y="45" class="h">NMSI Support Navigator — system and user flow</text>

  <text x="35" y="92" class="t">USER EXPERIENCE</text>
  <rect x="35" y="115" width="220" height="170" class="page"/>
  <text x="50" y="140" class="s">L1 LOGIN</text><line x1="140" y1="115" x2="140" y2="285" class="thin"/>
  <circle cx="87" cy="180" r="32" class="page"/><text x="63" y="187" class="s">NMSI</text>
  <rect x="160" y="160" width="75" height="26" class="page"/><rect x="160" y="200" width="75" height="26" class="page"/><rect x="160" y="240" width="75" height="26" class="page"/>

  <rect x="320" y="115" width="240" height="170" class="page"/>
  <text x="335" y="140" class="s">D1 DASHBOARD</text><rect x="320" y="150" width="55" height="135" class="page"/>
  <rect x="395" y="160" width="145" height="80" class="page"/><text x="408" y="190" class="s">Start with</text><text x="408" y="212" class="s">your situation</text>

  <rect x="625" y="115" width="270" height="170" class="page"/>
  <text x="640" y="140" class="s">S1 SEARCH + COMPARE</text><rect x="625" y="150" width="55" height="135" class="page"/>
  <rect x="700" y="158" width="175" height="32" class="page"/>
  <rect x="700" y="205" width="175" height="28" class="page"/><rect x="700" y="243" width="175" height="28" class="page"/>

  <rect x="960" y="115" width="280" height="170" class="page"/>
  <text x="975" y="140" class="s">F1 FACILITY + BOOK</text><rect x="960" y="150" width="55" height="135" class="page"/>
  <rect x="1030" y="160" width="105" height="100" class="page"/><rect x="1148" y="160" width="75" height="100" class="page"/>

  <path d="M255 200 L320 200" class="flow"/><path d="M560 200 L625 200" class="flow"/><path d="M895 200 L960 200" class="flow"/>

  <rect x="960" y="360" width="280" height="170" class="page"/>
  <text x="975" y="385" class="s">A1 MY APPOINTMENTS</text><rect x="960" y="395" width="55" height="135" class="page"/>
  <rect x="1030" y="408" width="190" height="42" class="page"/><rect x="1030" y="468" width="190" height="42" class="page"/>
  <path d="M1100 285 L1100 360" class="flow"/>
  <path d="M960 445 C865 445 840 300 760 285" class="flow"/>

  <rect x="625" y="360" width="270" height="170" class="page"/>
  <text x="640" y="385" class="s">C1 SUPPORT GUIDE</text>
  <rect x="690" y="400" width="185" height="110" class="page"/><rect x="710" y="418" width="145" height="28" class="page"/><rect x="735" y="458" width="120" height="28" class="page"/>
  <path d="M760 285 L760 360" class="flow"/>

  <text x="35" y="610" class="t">SYSTEM COMPONENTS</text>
  <rect x="120" y="650" width="250" height="120" class="dash"/>
  <text x="145" y="680" class="t">Ktor + Pebble</text><text x="145" y="712" class="s">routes • sessions • templates</text><text x="145" y="740" class="s">accessible HTML + CSS + JS</text>
  <rect x="465" y="650" width="250" height="120" class="dash"/>
  <text x="490" y="680" class="t">SupportRepository</text><text x="490" y="712" class="s">search • compare • appointments</text><text x="490" y="740" class="s">user-scoped transactions</text>
  <rect x="810" y="650" width="250" height="120" class="dash"/>
  <text x="835" y="680" class="t">Database</text><text x="835" y="712" class="s">H2 local / PostgreSQL deploy</text><text x="835" y="740" class="s">taxonomy • facilities • records</text>
  <rect x="1150" y="650" width="220" height="120" class="dash"/>
  <text x="1175" y="680" class="t">DeepSeek V4 Flash</text><text x="1175" y="712" class="s">clarification + explanation</text><text x="1175" y="740" class="s">tool requests, no direct DB</text>
  <path d="M760 530 C730 590 300 590 245 650" class="flow"/>
  <path d="M370 710 L465 710" class="flow"/><path d="M715 710 L810 710" class="flow"/>
  <path d="M895 530 C980 575 1250 575 1260 650" class="flow"/>
  <path d="M1150 710 L1060 710" class="flow"/>

  <rect x="70" y="810" width="1260" height="55" class="page"/>
  <text x="95" y="842" class="s">Evidence chain: own words T01–T03 → overlap T04–T07 → tie-breakers T08–T11 → scope T12–T15/T19 → confirmation and fallback T16–T18.</text>
</svg>
